<svg width="16" height="16" viewBox="0 0 16 16" fill="none" xmlns="http://www.w3.org/2000/svg">
<path fill-rule="evenodd" clip-rule="evenodd" d="M14.7888 5.98897C14.7444 5.98683 14.6999 5.98607 14.6555 5.98669H12.8003C11.2826 5.98669 9.98282 7.19123 9.98282 8.76224C9.98282 10.3333 11.2826 11.5378 12.801 11.5378H14.6547C14.7012 11.5378 14.7461 11.5378 14.788 11.5347C15.1013 11.5147 15.3966 11.3815 15.6189 11.1599C15.8412 10.9383 15.9754 10.6434 15.9964 10.3302C15.9994 10.2853 15.9994 10.2373 15.9994 10.1931V7.33142C15.9994 7.28723 15.9994 7.23923 15.9964 7.19428C15.9754 6.8812 15.8414 6.58641 15.6192 6.36481C15.3971 6.14322 15.1019 6.00992 14.7888 5.98974V5.98897ZM12.638 9.50203C13.0288 9.50203 13.3465 9.17138 13.3465 8.76224C13.3465 8.35311 13.0288 8.02245 12.638 8.02245C12.2471 8.02245 11.9302 8.35311 11.9302 8.76224C11.9302 9.17138 12.2464 9.50203 12.638 9.50203Z" fill="#51B15C"/>
<path fill-rule="evenodd" clip-rule="evenodd" d="M14.655 12.6477C14.6806 12.6468 14.7059 12.6519 14.7291 12.6626C14.7523 12.6733 14.7727 12.6894 14.7885 12.7094C14.8044 12.7294 14.8153 12.7529 14.8205 12.7779C14.8256 12.8029 14.8248 12.8288 14.8181 12.8534C14.6703 13.3806 14.4364 13.8302 14.0608 14.2081C13.5114 14.7619 12.8143 15.008 11.9534 15.1246C11.1168 15.2381 10.0487 15.2381 8.6986 15.2381H7.14664C5.79734 15.2381 4.72841 15.2381 3.89186 15.1246C3.03092 15.008 2.3338 14.7619 1.78448 14.2081C1.23516 13.6549 0.991353 12.9525 0.875546 12.0847C0.762787 11.2413 0.762787 10.164 0.762787 8.80399V8.72018C0.762787 7.36021 0.762787 6.28214 0.875546 5.43949C0.991353 4.5717 1.23516 3.87077 1.78372 3.31535C2.33304 2.76222 3.03016 2.51537 3.89109 2.39956C4.72841 2.28604 5.79734 2.28604 7.14664 2.28604H8.6986C10.0479 2.28604 11.1168 2.28604 11.9534 2.39956C12.8143 2.51613 13.5114 2.76222 14.0608 3.31535C14.4364 3.69401 14.6703 4.14352 14.8181 4.67151C14.8246 4.69611 14.8253 4.7219 14.8201 4.74682C14.8149 4.77174 14.804 4.79509 14.7881 4.81501C14.7723 4.83493 14.752 4.85087 14.7289 4.86154C14.7058 4.87221 14.6805 4.87732 14.655 4.87646H12.8014C10.7184 4.87646 8.88298 6.53509 8.88298 8.76208C8.88298 10.9891 10.7191 12.6477 12.8021 12.6477H14.655ZM3.51625 5.24673C3.44371 5.24703 3.37194 5.26162 3.30504 5.28965C3.23814 5.31769 3.17741 5.35863 3.12633 5.41013C3.07525 5.46164 3.03482 5.5227 3.00733 5.58983C2.97985 5.65696 2.96586 5.72885 2.96616 5.80139C2.96616 6.10843 3.21225 6.3568 3.51625 6.3568H6.45408C6.75884 6.3568 7.00493 6.10843 7.00493 5.80139C7.00533 5.65482 6.94755 5.51408 6.84427 5.41009C6.74098 5.30609 6.60065 5.24734 6.45408 5.24673H3.51625Z" fill="#51B15C"/>
<path d="M5.16447 1.54251L6.65625 0.443104C7.04553 0.155312 7.51687 0 8.00098 0C8.48509 0 8.95643 0.155312 9.34571 0.443104L10.8459 1.5486C10.2181 1.52422 9.51713 1.52422 8.74991 1.52422H7.09662C6.39416 1.52422 5.74884 1.52422 5.16447 1.54251Z" fill="#51B15C"/>
</svg>
