<svg width="28" height="24" viewBox="0 0 28 24" fill="none" xmlns="http://www.w3.org/2000/svg">
<path d="M6.94451 21.0215C7.48166 20.9078 10.7547 20.9078 11.2918 21.0215C11.751 21.1275 12.2476 21.3753 12.2476 21.9164C12.2209 22.4315 11.9187 22.8882 11.5011 23.1782C10.9597 23.6003 10.3243 23.8676 9.66013 23.9639C9.29278 24.0115 8.93183 24.0126 8.5773 23.9639C7.91201 23.8676 7.27662 23.6003 6.73628 23.1771C6.31767 22.8882 6.01546 22.4315 5.98876 21.9164C5.98876 21.3753 6.48533 21.1275 6.94451 21.0215ZM9.18161 2.51053C11.4167 2.51053 13.6998 3.57105 15.056 5.33066C15.9359 6.46369 16.3396 7.59564 16.3396 9.35525V9.813C16.3396 11.1625 16.6963 11.9579 17.4812 12.8745C18.076 13.5497 18.266 14.4165 18.266 15.357C18.266 16.2963 17.9574 17.188 17.3391 17.912C16.5297 18.7799 15.3881 19.3339 14.2231 19.4302C12.5347 19.5742 10.8454 19.6954 9.13356 19.6954C7.42068 19.6954 5.73237 19.6229 4.04405 19.4302C2.87793 19.3339 1.73637 18.7799 0.927986 17.912C0.309684 17.188 0 16.2963 0 15.357C0 14.4165 0.19115 13.5497 0.78489 12.8745C1.59434 11.9579 1.92752 11.1625 1.92752 9.813V9.35525C1.92752 7.54802 2.37816 6.3663 3.30615 5.20946C4.68585 3.52236 6.89742 2.51053 9.0855 2.51053H9.18161Z" fill="#51B15C"/>
<rect x="11.0551" width="16" height="16" rx="8" fill="#FF1D1D"/>
<path d="M17.2313 11H16.4247V7.78369C16.4247 7.6766 16.4258 7.5695 16.4281 7.4624C16.4304 7.35531 16.4327 7.25049 16.4349 7.14795C16.4395 7.04541 16.4452 6.94743 16.452 6.854C16.4042 6.90641 16.3449 6.96338 16.2743 7.0249C16.2059 7.08643 16.133 7.15023 16.0555 7.21631L15.4813 7.67432L15.078 7.16504L16.5614 6.00293H17.2313V11ZM22.2592 8.49805C22.2592 8.90137 22.2273 9.26253 22.1635 9.58154C22.1019 9.89827 22.0039 10.1672 21.8695 10.3882C21.7351 10.6092 21.5596 10.7778 21.3431 10.894C21.1267 11.0103 20.8646 11.0684 20.557 11.0684C20.1719 11.0684 19.854 10.967 19.6034 10.7642C19.3527 10.5591 19.167 10.2651 19.0463 9.88232C18.9255 9.49723 18.8651 9.03581 18.8651 8.49805C18.8651 7.96029 18.9198 7.5 19.0292 7.11719C19.1408 6.7321 19.3208 6.43701 19.5692 6.23193C19.8176 6.02686 20.1469 5.92432 20.557 5.92432C20.9444 5.92432 21.2634 6.02686 21.514 6.23193C21.767 6.43473 21.9538 6.72868 22.0746 7.11377C22.1976 7.49658 22.2592 7.95801 22.2592 8.49805ZM19.6752 8.49805C19.6752 8.9196 19.7025 9.27165 19.7572 9.5542C19.8142 9.83675 19.9076 10.0487 20.0375 10.1899C20.1674 10.3289 20.3405 10.3984 20.557 10.3984C20.7735 10.3984 20.9467 10.3289 21.0765 10.1899C21.2064 10.0509 21.2998 9.84017 21.3568 9.55762C21.4161 9.27507 21.4457 8.92188 21.4457 8.49805C21.4457 8.07878 21.4172 7.72786 21.3602 7.44531C21.3033 7.16276 21.2098 6.95085 21.08 6.80957C20.9501 6.66602 20.7758 6.59424 20.557 6.59424C20.3383 6.59424 20.1639 6.66602 20.0341 6.80957C19.9065 6.95085 19.8142 7.16276 19.7572 7.44531C19.7025 7.72786 19.6752 8.07878 19.6752 8.49805Z" fill="white"/>
</svg>
